# xmcd CD database file
#
# Track frame offsets:
#	150
#	18678
#	45046
#	86526
#	106609
#	135476
#	152829
#	180919
#	200234
#	211779
#	231094
#	247872
#	264604
#	288715
#
# Disc length: 4390 seconds
#
# Revision: 0
# Processed by: cddbd v1.5.2PL0 Copyright (c) Steve Scherf et al.
# Submitted via: CDex 1.70beta2
#
DISCID=b311240e
DTITLE=Various Artist - Craossover X-Mas: The Sound Goes Big
DYEAR=2006
DGENRE=Jazz
TTITLE0=Adeste Fidelis
TTITLE1=Santa Claus Is Comming To Town
TTITLE2=O Holy Night
TTITLE3=Dry Your Tears Africa
TTITLE4=Georgia
TTITLE5=Metropercossa
TTITLE6=Joy To The World
TTITLE7=Somwhere In My Memory
TTITLE8=I've Got My Love To Keep Me Warm
TTITLE9=Christmas Song
TTITLE10=Hit The Road Jack
TTITLE11=Just A Little Lovin
TTITLE12=White Christmas
TTITLE13=Love Is All You Need - Medley
EXTD=YEAR: 2006
EXTT0=
EXTT1=
EXTT2=
EXTT3=
EXTT4=
EXTT5=
EXTT6=
EXTT7=
EXTT8=
EXTT9=
EXTT10=
EXTT11=
EXTT12=
EXTT13=
PLAYORDER=
